<?xml version="1.0" encoding="utf-8"?><svg viewBox="0 0 52 56" xmlns="http://www.w3.org/2000/svg" xmlns:xlink="http://www.w3.org/1999/xlink"><style>:root>svg{display:none}:root>svg:target{display:block}</style><svg fill="none" viewBox="0 0 13 16" id="icon-adress" xmlns="http://www.w3.org/2000/svg"><path fill-rule="evenodd" clip-rule="evenodd" d="M11.8 6.5c0 2.33-1.367 4.417-2.912 6.01A17.54 17.54 0 016.5 14.558a17.54 17.54 0 01-2.388-2.046C2.567 10.917 1.2 8.83 1.2 6.5a5.3 5.3 0 1110.6 0zm1.2 0c0 5.59-6.5 9.5-6.5 9.5S0 12.09 0 6.5a6.5 6.5 0 0113 0zm-4.2 0a2.3 2.3 0 11-4.6 0 2.3 2.3 0 014.6 0zm1.2 0a3.5 3.5 0 11-7 0 3.5 3.5 0 017 0z" fill="#7859CF"/></svg><svg fill="none" viewBox="0 0 11 20" id="icon-arrow" xmlns="http://www.w3.org/2000/svg"><path fill-rule="evenodd" clip-rule="evenodd" d="M9.717 0L11 1.32 2.567 10 11 18.68 9.717 20 0 10 9.717 0z" fill="#7859CF"/></svg><svg fill="none" viewBox="0 0 16 16" id="icon-basket" xmlns="http://www.w3.org/2000/svg"><path fill-rule="evenodd" clip-rule="evenodd" d="M5.66 3.875l.234 2.792h4.213l.232-2.792a2.347 2.347 0 10-4.678 0zm5.784 2.792l.224-2.68a3.68 3.68 0 10-7.336 0l.224 2.68H0L.19 8l.816 5.71A2.667 2.667 0 003.646 16h8.708a2.667 2.667 0 002.64-2.29L15.81 8 16 6.667h-4.556zM11.334 8h-.054l-.222 2.667h3.024L14.462 8h-3.129zM9.941 8H6.058l.222 2.667h3.44L9.942 8zM4.72 8H1.537l.381 2.667h3.024L4.72 8zm1.893 6.667L6.391 12H9.61l-.222 2.667H6.613zM10.947 12l-.222 2.667h1.629c.663 0 1.226-.488 1.32-1.145L13.89 12h-2.944zm-5.894 0l.222 2.667H3.646a1.333 1.333 0 01-1.32-1.145L2.11 12h2.944z" fill="#333"/></svg><svg fill="none" viewBox="0 0 52 56" id="icon-convenience" xmlns="http://www.w3.org/2000/svg"><path d="M4 4h48l-4 44-20 8-20-8L4 4z" fill="#F0EBFF"/><path fill-rule="evenodd" clip-rule="evenodd" d="M1.004 0H0l.09 1L4 44l20 8 20-8 3.91-43L48 0H1.004zm.091 1l.364 4H46.54l.364-4H1.095zm40.812 5H6.093l.101 1.132-.498.045-.498.044L5.089 6H1.55L4.94 43.3 24 50.922l19.06-7.624L46.45 6h-3.54l-.108 1.221-.498-.044-.498-.045.1-1.132zM6.092 11.62l-.498.044.396 4.442.498-.045.498-.044-.396-4.442-.498.044zm.791 8.884l-.498.044.396 4.442.498-.044.498-.044-.396-4.443-.498.045zm.792 8.884l-.498.045.396 4.442.498-.044.498-.045-.396-4.442-.498.044zm.792 8.885l-.498.044.198 2.221 1.979.808.189-.463.189-.463-1.415-.577-.144-1.614-.498.044zm5.826 4.226l-.189.462 3.959 1.616.188-.463.19-.463-3.959-1.615-.189.463zm7.917 3.23l-.19.463L24 47l1.98-.808-.19-.463-.189-.463L24 45.92l-1.601-.654-.19.463zm7.539-1.615l.189.463 3.958-1.615-.19-.463-.188-.463-3.958 1.615.189.463zm7.916-3.23l.19.462 1.978-.807.198-2.222-.498-.044-.498-.044-.144 1.614-1.415.577.19.463zm2.264-7.053l.498.044.396-4.442-.498-.045-.498-.044-.396 4.442.498.045zm.792-8.885l.498.044.396-4.442-.498-.044-.498-.045-.396 4.443.498.044zm.791-8.885l.498.045.396-4.443-.498-.044-.498-.044-.396 4.442.498.044z" fill="#7859CF"/></svg><svg fill="none" viewBox="0 0 52 56" id="icon-ecology" xmlns="http://www.w3.org/2000/svg"><path fill-rule="evenodd" clip-rule="evenodd" d="M41.707 22.122C42.477 15.557 43.204 9.35 49 4c-26.493 0-34.153 8.128-38 14-8.542 13.037-.915 25.67.71 28.086a808.638 808.638 0 00-2.741 5.51A848.331 848.331 0 017 55.56l.881.44c.635-1.268 1.298-2.608 1.984-3.996a825.817 825.817 0 012.647-5.322c2.595.867 14.453 4.183 21.988-4.682 5.657-6.655 6.452-13.438 7.207-19.878z" fill="#F0EBFF"/><path fill-rule="evenodd" clip-rule="evenodd" d="M8.232 41.055C12.19 33.258 16.686 25.095 21.267 20l.733.656c-4.569 5.082-9.07 13.297-13.032 21.123A26.195 26.195 0 0016.09 43c4.384.12 9.663-.96 13.648-5.648 5.46-6.423 6.225-12.946 6.983-19.406l.015-.129c.681-5.81 1.384-11.634 5.875-16.794-11.79.23-19.481 2.162-24.667 4.675-5.5 2.665-8.252 6.018-10.108 8.85-4.553 6.95-4.318 13.762-2.933 18.878a28.925 28.925 0 002.483 6.182c.32.59.612 1.076.846 1.447zm-.521 1.031C6.085 39.67-1.542 27.037 7 14 10.776 8.236 18.226.3 43.552.008 44.03.003 44.511 0 45 0c-.36.331-.699.666-1.02 1.004-4.866 5.116-5.551 10.96-6.273 17.118-.755 6.44-1.55 13.223-7.207 19.878-7.535 8.865-19.393 5.549-21.988 4.682-.915 1.817-1.799 3.606-2.647 5.322C5.179 49.392 4.516 50.732 3.88 52L3 51.56c.63-1.258 1.288-2.587 1.969-3.964a808.174 808.174 0 012.742-5.51z" fill="#7859CF"/></svg><svg fill="none" viewBox="0 0 52 56" id="icon-energy" xmlns="http://www.w3.org/2000/svg"><path fill-rule="evenodd" clip-rule="evenodd" d="M24.973 35.2L43.135 4 9 30.675 24.973 35.2zm6.054-10.4L12.866 56 47 29.325 31.027 24.8z" fill="#F0EBFF"/><path fill-rule="evenodd" clip-rule="evenodd" d="M39.135 0L5 26.675 20.973 31.2 8.866 52 43 25.325 27.027 20.8 39.135 0zm1.697 25.75l-15.318-4.34L35.657 3.988 7.168 26.25l15.318 4.34-10.143 17.423L40.833 25.75z" fill="#7859CF"/></svg><svg fill="none" viewBox="0 0 16 16" id="icon-logo" xmlns="http://www.w3.org/2000/svg"><path fill-rule="evenodd" clip-rule="evenodd" d="M10.667 4a2.667 2.667 0 11-5.334 0 2.667 2.667 0 015.334 0zM12 4a4 4 0 11-8 0 4 4 0 018 0zm-8.803 8.31C4.437 11.277 6.16 10.667 8 10.667s3.564.61 4.803 1.643c1.232 1.027 1.864 2.362 1.864 3.69H16c0-1.768-.843-3.464-2.343-4.714-1.5-1.25-3.535-1.953-5.657-1.953s-4.157.703-5.657 1.953S0 14.232 0 16h1.333c0-1.328.632-2.663 1.864-3.69z" fill="#333"/></svg><svg fill="none" viewBox="0 0 38 50" id="icon-map-pin" xmlns="http://www.w3.org/2000/svg"><ellipse cx="19" cy="48.5" rx="8" ry="1.5" fill="#7859CF" fill-opacity=".25"/><path d="M38 20c0 15.046-19 24-19 24S0 35.046 0 20C0 8.954 8.507 0 19 0s19 8.954 19 20z" fill="#7859CF"/><path fill-rule="evenodd" clip-rule="evenodd" d="M19 36c8.284 0 15-7.163 15-16 0-8.836-6.716-16-15-16-8.284 0-15 7.164-15 16 0 8.837 6.716 16 15 16zm9.857-10.667A12.847 12.847 0 0030 20c0-6.627-4.925-12-11-12-.847 0-1.672.104-2.464.302 3.797 1 6.59 4.366 6.59 8.365 0 3.107-1.745 6.152-3.438 8.666h9.169zm-14.67-14.666c3.418 0 6.188 2.686 6.188 6 0 3.8-3.014 7.467-5.432 10.409-.26.317-.514.625-.755.924h13.011c-2.014 2.455-4.941 4-8.199 4-6.075 0-11-5.373-11-12 0-3.662 1.615-9.334 6.188-9.334z" fill="#fff"/></svg><svg fill="none" viewBox="0 0 16 12" id="icon-menu" xmlns="http://www.w3.org/2000/svg"><path fill-rule="evenodd" clip-rule="evenodd" d="M0 0h16v1.5H0V0zm0 5.25h16v1.5H0v-1.5zm16 5.25H0V12h16v-1.5z" fill="#333"/></svg><svg fill="none" viewBox="0 0 12 12" id="icon-menu-closed" xmlns="http://www.w3.org/2000/svg"><path fill-rule="evenodd" clip-rule="evenodd" d="M5.025 6L0 .975.975 0 6 5.025 11.025 0 12 .975 6.975 6 12 11.025l-.975.975L6 6.975.975 12 0 11.025 5.025 6z" fill="#333"/></svg><svg fill="none" viewBox="0 0 13 16" id="icon-phone" xmlns="http://www.w3.org/2000/svg"><path fill-rule="evenodd" clip-rule="evenodd" d="M1.478 1.49C.407 2.09-.173 3.236.046 4.32l.358 1.774c.926 3.123 2.5 5.769 4.825 8.109l1.405 1.188c.857.726 2.17.811 3.24.211l2.23-1.249c.873-.488 1.162-1.534.626-2.259l-1.935-2.613c-.516-.697-1.588-.812-2.366-.253l-1.375.988c-1.228-.88-2.008-2.19-2.179-3.662l1.57-.662c.887-.374 1.32-1.333.957-2.114L6.037.845C5.658.032 4.58-.247 3.707.241l-2.23 1.25zm-.196 2.528c-.119-.59.197-1.216.782-1.543l2.23-1.25c.217-.121.487-.051.582.152L6.24 4.309c.091.196-.017.435-.239.529l-2.43 1.025.016.416c.082 2.126 1.212 4.025 3.068 5.157l.364.221 2.13-1.53c.194-.14.462-.11.591.064l1.935 2.613c.134.181.061.443-.157.565l-2.23 1.249c-.583.327-1.3.28-1.767-.115l-1.405-1.189C4.39 11.62 2.29 8.091 1.641 5.792l-.359-1.774z" fill="#7859CF"/></svg><svg fill="none" viewBox="0 0 52 56" id="icon-speed" xmlns="http://www.w3.org/2000/svg"><path fill-rule="evenodd" clip-rule="evenodd" d="M24 4h8v3h-3v3.021a22.873 22.873 0 0110.503 3.058c1.851-1.931 6.252.167 4.76 3.657A22.93 22.93 0 0151 33c.001 12.703-10.296 23-22.999 23S5 45.703 5 33c0-6.67 2.84-12.677 7.376-16.878-.217.2-.43.405-.64.614-2.029-3.029 2.584-6.154 4.761-3.658A22.873 22.873 0 0127 10.021V7h-3V4z" fill="#F0EBFF"/><path fill-rule="evenodd" clip-rule="evenodd" d="M27 1h-6v1h6V1zm-2 2h3V0h-8v3h3v3.021a22.873 22.873 0 00-9.606 2.565l-.14-.161c-1.538-1.768-3.859-1.442-5.3-.401-.739.535-1.351 1.314-1.602 2.254-.258.966-.11 2.025.554 3.015l.123.184A22.917 22.917 0 001 29c0 12.703 10.297 23 23 23s23-10.297 23-23c0-5.96-2.267-11.39-5.986-15.476l.169-.394c.462-1.083.492-2.128.169-3.043-.318-.9-.95-1.6-1.685-2.06-1.408-.884-3.534-1.055-4.89.364l-.181.19A22.874 22.874 0 0025 6.02V3zm-1 4c-3.86 0-7.487.994-10.64 2.74l-.36.207a22.002 22.002 0 00-3.93 2.895A21.941 21.941 0 002 29c0 12.15 9.85 22 22 22s22-9.85 22-22a21.931 21.931 0 00-6.821-15.925A22 22 0 0035 9.947l-.364-.21A21.9 21.9 0 0024 7zM12.498 9.078a23.077 23.077 0 00-4.761 3.658 2.981 2.981 0 01-.436-.974c-.547-2.313 2.312-4.314 4.346-3.339.307.148.595.363.85.655zm23.005 0a23.081 23.081 0 014.76 3.659c.167-.39.26-.762.291-1.114.21-2.336-2.31-3.742-4.103-3.14a2.326 2.326 0 00-.948.596zM24 31a2 2 0 00.864-3.804L23.95 27A2 2 0 0024 31zm-.636-4.932l-1.346-4.936-.04-.147.048-.143 1.5-4.5.474-1.423.474 1.423 1.5 4.5.048.143-.04.147-1.346 4.936c.13.028.256.064.379.108l7.55-13.421.87.49-7.549 13.422a3 3 0 11-2.522-.6zm-.342-5.053L24 24.6l.978-3.585L24 18.08l-.978 2.934z" fill="#7859CF"/></svg></svg>